<?xml version="1.0" encoding="utf-8"?>
<!-- Generator: Adobe Illustrator 25.0.0, SVG Export Plug-In . SVG Version: 6.00 Build 0)  -->
<svg version="1.1" id="Layer_1" xmlns="http://www.w3.org/2000/svg" xmlns:xlink="http://www.w3.org/1999/xlink" x="0px" y="0px"
	 viewBox="0 0 1292.6 230.2" style="enable-background:new 0 0 1292.6 230.2;" xml:space="preserve">
<style type="text/css">
	.st0{fill:#FFC200;}
</style>
<g>
	<path class="st0" d="M167.3,184.1c22.9,1.2,46.2,2.3,69.7,3.5c0.1-0.5,0.2-1.1,0.2-1.6l-42.8-10.5c0.1-0.3,0.2-0.7,0.2-1.1
		c8.3,1,16.7,2.6,25,2.9c24.5,1.1,49.1,2.4,73.6,2.4c19.9,0,39.8-1.4,59.6-3.2c22.7-2.1,45.4-5.1,68-8.3c20.9-3,41.8-6.4,62.6-10.4
		c27.4-5.3,54.8-10.5,81.9-17.2c48-11.8,95.9-24,143.6-37.1c43.6-11.9,86.7-25.3,130.1-37.9c34.9-10.2,69.7-20.5,104.7-30.2
		c40.9-11.4,82.2-21.6,124.1-28.6c30.9-5.1,62.1-8.8,93.6-5.9c-2,0-4,0-6,0c-30.2-0.4-60,4-89.5,9.7
		C1013.2,21.1,961.6,36,910.2,51.4c-41.5,12.5-82.8,25.3-124.2,38c-6.8,2.1-13.5,4.2-20.1,7.2c3.8-0.9,7.7-1.7,11.4-2.8
		C829.3,78.7,881.1,63.2,933,48.3c45.9-13.2,92.1-25.3,139.2-33.6c26.9-4.8,54-8.3,81.4-7.8c23.4,0.4,46.4,3.2,68.2,12.5
		c22.8,9.7,40.5,25.2,52.3,47c13,24,18,49.9,18.4,76.9c-0.5,0.1-0.9,0.2-1.3,0.3c-0.7-3.4-1.4-6.8-2-10.2c-0.7-3.7-1.3-7.5-2.1-11.2
		c-4.3-21.8-11-42.6-24.1-60.9c-12.9-18-30.2-30-51.1-37c-21.6-7.2-43.9-8.8-66.4-8.1c-24.6,0.7-48.9,3.6-73,9.1
		c1.4,0,2.8,0.2,4.2,0c22.1-4.2,44.4-6.4,66.9-6.9c21.3-0.5,42.3,1.2,62.7,7.7c32.5,10.3,54.2,32,65.3,64.1
		c9.6,27.7,10.5,56.2,7.7,85.2c-0.3-3.5-0.6-7-1-10.4c-2.1-16.6-3.5-33.3-6.6-49.6c-3.2-17.2-9.7-33.3-20.4-47.4
		c-15-19.8-35.5-30.3-59.4-34.8c-22.7-4.3-45.5-3.6-68.4-1.5c-38.2,3.6-75.5,12.3-112.5,21.9c-0.4,0.1-0.8,0.3-2.5,1.1
		c23.8-2.8,46.2-5.5,68.5-8.2c0.1,0.5,0.2,1,0.3,1.5c-1.7,0.6-3.4,1.3-5.1,1.9c-40,14.2-81,25.2-121.8,37
		c-42.2,12.2-84.1,25.7-126.2,38.3c-33.8,10.2-67.5,20.4-101.5,30.1c-50,14.2-100.1,27.7-151,38.4c-28.3,5.9-56.6,12.1-85.1,17.1
		c-38.8,6.8-77.7,12.4-117,15.4c-23.9,1.8-47.8,2.7-71.7,3.9c-5.3,0.2-10.6,0-15.9-0.3c12.4-0.8,24.9-1.6,37.3-2.5
		c0-0.2,0-0.5,0-0.7c-3.1,0-6.1,0-9.2,0c-19.3-0.1-38.6,0.5-57.8-0.3c-42.6-1.7-84.6-8-124.9-22.8c-30.3-11.2-57.9-27-80.5-50.5
		C24.8,129.8,10.5,102.4,3.8,71C-0.4,51.2-1,31.2,1.4,11c0,2.5,0,5,0,7.6C0.8,37,2,55.4,6.5,73.4c9.6,38.3,30,69.5,61.4,93.6
		c31.9,24.4,68.5,37.3,107.1,45.3c43.2,8.9,87,10.5,130.9,8.8c40.8-1.5,81.5-5.7,121.8-12.7c29.4-5.1,58.4-11.6,87.6-17.5
		c2-0.4,4-1.1,5.8-2.8c-5.3,0.6-10.5,1-15.8,1.7c-20.3,2.9-40.6,6.2-60.9,8.9c-20.8,2.8-41.6,5.1-62.4,7.6
		c-34.1,4.2-68.4,5.9-102.8,5.5c-21.2-0.3-42.3-2.1-63.4-3.3c-0.6,0-1.2-0.3-1.8-0.9c57,5.4,113.7,2,170.3-5.3
		c56.4-7.3,112.1-17.8,166.8-32.9c-0.1-0.5-0.2-0.9-0.2-1.4c-9.1,1.4-18.3,2.9-27.4,4.3c-28.6,4.5-57.2,9.6-85.9,13.4
		c-29.4,3.9-58.9,7.3-88.4,9.6c-33,2.6-66,2.9-99.1,1c-26-1.5-51.8-4.7-77.3-10.6C170.9,185.2,168.8,184.5,167.3,184.1L167.3,184.1z
		"/>
</g>
</svg>
