<?xml version="1.0" encoding="utf-8"?>
<!-- Generator: Adobe Illustrator 25.0.0, SVG Export Plug-In . SVG Version: 6.00 Build 0)  -->
<svg version="1.1" id="Layer_1" xmlns="http://www.w3.org/2000/svg" xmlns:xlink="http://www.w3.org/1999/xlink" x="0px" y="0px"
	 viewBox="0 0 1233.1 181.8" style="enable-background:new 0 0 1233.1 181.8;" xml:space="preserve">
<style type="text/css">
	.st0{fill-rule:evenodd;clip-rule:evenodd;fill:#003675;}
</style>
<g>
	<path class="st0" d="M0,178.7c7.4-4.1,14.6-8.5,22.2-12.2c33.8-16.2,69-29,105.3-38.2c60.1-15.2,120.3-30.7,181-43
		c80.2-16.3,160.8-30.3,241.5-44c50.1-8.5,100.5-14.9,150.9-21.5c42.2-5.6,84.5-11.1,126.9-14.8c36.4-3.2,73.1-4,109.8-5.1
		c9.6-0.3,19.4,1.5,28.7,4c12.9,3.5,14.7,12.6,4.2,21.1c-6.3,5.1-13.7,9.1-21.1,12.6c-31.6,14.6-63.4,28.6-95,43.1
		c-5.3,2.4-10.1,5.9-15.1,9c0.1,0.8,0.3,1.7,0.4,2.5c4.2,0.5,8.4,1.9,12.4,1.5c26-2.9,51.9-6.1,77.8-9.3
		c27.5-3.4,54.9-7.2,82.4-10.3c33.8-3.8,67.5-8.2,101.4-10.4c38.4-2.5,76.9-5.7,115.4-0.7c1,0.1,1.9,0.8,3.9,1.8
		c-2.5,0.6-3.8,1.1-5.2,1.2c-23.5,0.8-47.2,1-70.6,2.6c-26.1,1.7-52.2,4.2-78.1,7.1c-33.1,3.8-66,8.2-99,12.6
		c-35.6,4.8-71,10.4-106.6,14.6c-14.4,1.7-29,1.3-43.5,1.2c-3.1,0-7.9-2.6-8.8-5.1c-0.8-2.4,1.5-7.4,3.9-9.3
		c9.3-6.9,18.6-14.1,28.8-19.2c27.5-13.6,55.5-26,83.3-39c6.4-3,12.9-6,19-9.5c2.3-1.3,3.6-4.1,5.4-6.3c-2.6-1.2-5.1-3.4-7.7-3.5
		c-13-0.9-26.2-2.2-39.2-1.8c-21.3,0.6-42.6,1.9-63.8,3.8c-34.6,3.1-69.2,6.6-103.7,10.5c-32.7,3.7-65.2,7.8-97.8,12.3
		c-23.3,3.2-46.5,7-69.8,10.9c-56.7,9.4-113.6,18.4-170.1,28.9c-56.9,10.6-113.7,22.1-170.2,34.4c-68.7,14.9-136.9,32.4-203.3,55.9
		c-8.8,3.1-17.2,7.4-25.7,11c-2.9,1.3-5.9,2.4-8.8,3.6C1,180.8,0.5,179.7,0,178.7L0,178.7z"/>
</g>
</svg>
