<?xml version="1.0" encoding="utf-8"?>
<!-- Generator: Adobe Illustrator 25.0.0, SVG Export Plug-In . SVG Version: 6.00 Build 0)  -->
<svg version="1.1" id="Layer_1" xmlns="http://www.w3.org/2000/svg" xmlns:xlink="http://www.w3.org/1999/xlink" x="0px" y="0px"
	 viewBox="0 0 30 25.9" style="enable-background:new 0 0 30 25.9;" xml:space="preserve">
<style type="text/css">
	.st0{fill:#FFFFFF;}
</style>
<g>
	<path class="st0" d="M15,15c-1.5,0-2.7,1.2-2.7,2.7c0,1.5,1.2,2.7,2.7,2.7c1.5,0,2.7-1.2,2.7-2.7C17.7,16.2,16.5,15,15,15
		 M23.9,23.2H6.1l-3-10.9h23.7L23.9,23.2 M15,3.8l3.8,5.7h-7.6L15,3.8 M28.6,9.5h-6.5l-6-8.9C15.9,0.2,15.4,0,15,0
		c-0.4,0-0.9,0.2-1.1,0.6l-6,8.9H1.4C0.6,9.5,0,10.2,0,10.9c0,0.1,0,0.2,0.1,0.4l3.5,12.6c0.3,1.1,1.4,2,2.6,2h17.7
		c1.3,0,2.3-0.8,2.6-2L30,11.3l0-0.4C30,10.2,29.4,9.5,28.6,9.5L28.6,9.5z"/>
</g>
</svg>
