<?xml version="1.0" encoding="utf-8"?>
<!-- Generator: Adobe Illustrator 25.0.0, SVG Export Plug-In . SVG Version: 6.00 Build 0)  -->
<svg version="1.1" id="Layer_1" xmlns="http://www.w3.org/2000/svg" xmlns:xlink="http://www.w3.org/1999/xlink" x="0px" y="0px"
	 viewBox="0 0 650 255" style="enable-background:new 0 0 650 255;" xml:space="preserve">
<style type="text/css">
	.st0{fill:#FEC20F;}
</style>
<path class="st0" d="M585,77c1-0.7,1.1-2.1,0.5-3.1c-5.4-1-8.7,0-12.5,0.6C575.3,76.1,583.8,78.4,585,77z M643.9,180
	c5.9-3.5-71.3-77.3-84.6-69.3c-2.7,2.6-9,6.9-11.5,9.7c-5.3,5.9-6.6,12.7-3.8,20.3c3.3,9.1,10.7,16.5,18,22.4
	c17.4,14,37.6,20.4,59.8,20.7c5.2,0.1,6.9-0.3,12.1-0.8C637.5,182.8,642.8,181.2,643.9,180 M0,243.6c4.8,0.7,9.5,1.5,14.3,2.2
	c8.3,1.3,16.6,2.7,25,3.9c7.9,1.1,15.9,2.2,23.8,2.6c8.3,0.3,16.7-0.2,25.1-0.4c8.7-0.3,17.1-2.3,25.3-5.5c9.6-3.8,18.4-9,25.8-16.1
	c11.1-10.7,21.7-22,32.9-32.7c15.3-14.6,32.5-26.2,53.4-31.2c13.4-3.2,26.7-2.5,39.7,2.1c10.9,3.8,21.7,8,32.6,11.9
	c7.9,2.8,16.2,4.4,24.5,4.4c8.5-0.1,17-1.4,25.4-3.7c22.8-6.4,43-17.7,60.8-33.2c6.9-6,14-11.9,21.1-17.7
	c7.2-5.8,15.4-9.9,24.2-12.7c10.3-3.3,21-5,31.8-4.5c4,0.2,8,1.2,11.9,2c1.2,0.3,2.4,0.9,3.4,1.6c3.6,2.5,4.5,6.1,1.3,9.1
	c-2.9,2.9-6.6,5.1-10.3,6.9c-7.3,3.7-15,8.3-20.6,13.3c-9.2,11.6,7.6,28,21.5,18.8c3.9-4.9,7.1-10.6,10.2-16.1
	c5.6-10.3,12.2-19.8,21-27.6c6-5.3,14.1-12.8,22.2-14.3c4.7-0.9,9.6-0.7,15.5-1.1c2-1.9,3.2-2.5,2.7-7.2c-0.2-1.6-0.7-3.1-1.3-4.6
	c-2.7-6.7-1.9-12.5,4.3-16.9c0.5-0.3,1-0.6,1.9-1.1c-9-3.3-17.1-4-25.4-0.3c-4.7,2.1-7.6,5.9-10.6,9.8c-3.5,4.7-7.5,8.8-12.5,12
	c-9.6,6-17.7,4.9-26.2-1.9c-12.3-9.7-19.3-23-23.7-37.7c-3.1-10.4-5.1-21.1-5.7-32c-0.3-4.4-0.6-8.8-0.7-13.2c0-2.2,0.3-4.4,0.7-6.5
	c1-5.2,4.1-6.9,9.2-4.9c5.6,2.1,9.9,6,14.2,9.9c8.5,7.7,15.5,16.6,22.3,25.7c7.3,9.7,10.5,14.4,17.7,24.2c1.3,1.8,6.4,6,9.3,7.4
	c2.5,1.1,1.3,3.8,0,4.6c-1.8,1.1-4.2-0.4-5.7-2.7c-4.1-5.7-6.9-9.3-11.1-14.9c-8.8-11.7-34.1-40.4-40.9-44.5
	c-6.5-4-11.4-1.8-11.9,5.8c-0.4,6,2,26.4,3.7,33.9c3.4,15.4,10.5,31.3,22.2,42.4c4.4,4.2,8.7,6.7,15.3,6.4c6.1-0.2,10.8-4.3,15-8.2
	c3-2.8,5.6-6.2,8.2-9.5c9-11.5,20.8-13.6,34-9.5c4,1.2,7.6,0.7,11.3,0.3c2.7-0.3,4.3-0.2,6.4,0c1.8,0.2,3.1,1.3,3,3.3
	c-0.1,2.2-1.7,3.4-3.7,3.8c-2.4,0.4-4.2,0.6-8-0.7c-1.7-0.6-4-2.1-5-2.1c-0.1,0-2.5,1.9-4,3.3c-2.3,2.1-4,5.9-2.9,9.5
	c0.7,2.1,2,3.5,2.7,5.5c1.6,4.6,0.9,8.6-2.5,12.2c3.2-5.4,69,36.8,85,70.2c1.1,2.3,2.3,6.1-2.2,7.3c-7.7,2.1-15.6,2.3-23.5,2.4
	c-16.4,0.1-32-3.3-46.6-10.7c-13.4-6.8-24.9-15.8-31.7-29.6c-6-12.1-4.7-20.7,4.7-30.3c1.8-1.8,3.7-3.4,5.9-5.5
	c-5.7-0.9-10.7-0.1-15.5,2.1c-7,3.3-12.6,8.5-18.1,13.9c-9,8.9-14.5,20-20.8,30.7c-2.3,3.9-4.8,7.8-8,10.8
	c-9.1,8.5-22.1,6.1-28.5-5.2c-1.8-3.2-3.2-7.1-3.5-10.8c-0.5-6.3,3.6-10.3,8.9-12.8c36.9-13.7,38.7-33.8-14.9-19.8
	c-13.5,4.1-24.7,12-34.9,21.4c-15.9,14.7-33,27.7-53.2,36.1c-11,4.5-22.3,7.9-34.2,9.5c-15.3,2.1-29.7-1.2-43.8-6.4
	c-39-14.8-91.1-7.7-113.9,22.7c-8.8,8.8-18.6,15-27.6,23.7c-11.3,10.9-23.8,19.9-39.1,24.5c-8,2.4-16.2,3.8-24.6,3.9
	c-6.4,0.1-12.8,0.3-19.2-0.1c-9.1-0.6-18.2-1.4-27.3-2.6c-10.4-1.4-20.7-3.3-31.1-5c-2.2-0.4-4.3-1-6.4-1.5V243.6z"/>
</svg>
