<?xml version="1.0" encoding="utf-8"?>
<!-- Generator: Adobe Illustrator 25.0.0, SVG Export Plug-In . SVG Version: 6.00 Build 0)  -->
<svg version="1.1" id="Layer_1" xmlns="http://www.w3.org/2000/svg" xmlns:xlink="http://www.w3.org/1999/xlink" x="0px" y="0px"
	 viewBox="0 0 26 25.5" style="enable-background:new 0 0 26 25.5;" xml:space="preserve">
<style type="text/css">
	.st0{fill:#FFFFFF;}
</style>
<path class="st0" d="M0,24.8V9.2c0-0.4,0.3-0.7,0.7-0.7H3V10H1.4v14.2h9.7c-0.1-0.3-0.3-0.5-0.6-0.7c-0.5-0.4-1.2-0.8-1.9-1.1
	l-4.5-2c-0.3-0.1-0.5-0.4-0.5-0.7v-2.2c0-0.4,0.3-0.7,0.7-0.7s0.7,0.3,0.7,0.7v1.7L9.2,21c0.7,0.3,1.5,0.7,2.1,1.1V9.8
	c0-0.6-0.3-1.1-0.7-1.4C10.1,8,9.3,7.7,8.6,7.3L5.1,5.8v9.1l0,0c0,0.4-0.3,0.7-0.7,0.7s-0.7-0.3-0.7-0.7V4.7C3.7,4.3,4,4,4.4,4
	C4.5,4,4.6,4,4.7,4l4.5,2c0.8,0.4,1.6,0.7,2.3,1.3c0.1,0.1,0.3,0.3,0.4,0.4c0.1-0.2,0.3-0.4,0.5-0.6C13,6.4,14,6,15,6h0.3l4-5.4v0
	c0.2-0.3,0.6-0.5,1-0.6c0.4-0.1,0.8,0,1.1,0.3l1,0.8C22.8,1.3,23,1.6,23,2s0,0.8-0.3,1.1L20.6,6h2c0.4,0,0.7,0.3,0.7,0.7v1.8h1.9
	c0.4,0,0.7,0.3,0.7,0.7v15.6c0,0.4-0.3,0.7-0.7,0.7H14.1c-0.4,0-0.7-0.3-0.7-0.7s0.3-0.7,0.7-0.7h10.5V10h-1.9
	c-0.4,0-0.7-0.3-0.7-0.7c0,0,0-0.1,0-0.1s0-0.1,0-0.1V7.4h-2.3l-2.1,2.8c-0.1,0.1-0.1,0.1-0.2,0.2h2.2c0.4,0,0.7,0.3,0.7,0.7
	c0,0.4-0.3,0.7-0.7,0.7h-5.2c-0.4,0-0.7-0.3-0.7-0.7c0-0.1,0-0.2,0.1-0.3c0,0,0,0,0-0.1L14,8.1c0-0.1,0.1-0.3,0.1-0.4l0,0l0.1-0.2
	c-0.3,0.1-0.6,0.3-0.9,0.6c-0.4,0.4-0.7,1.1-0.7,1.7v11.9c0.7-0.5,1.5-0.8,2.4-0.8h6.9v-9.6c0-0.4,0.3-0.7,0.7-0.7
	c0.4,0,0.7,0.3,0.7,0.7v10.3c0,0.4-0.3,0.7-0.7,0.7H15c-0.7,0-1.2,0.3-1.7,0.7c-0.4,0.4-0.7,1.1-0.7,1.7c0,0.4-0.3,0.7-0.7,0.7v0
	H0.7C0.3,25.5,0,25.2,0,24.8z M15.3,9.7l1.2-0.5l4-5.4L19.4,3l-4,5.4L15.3,9.7z M21.3,2.6l0.3-0.4c0,0,0,0,0,0c0,0,0,0,0,0l-1-0.7
	c0,0,0,0,0,0c0,0,0,0,0,0c0,0,0,0,0,0c0,0,0,0,0,0l-0.3,0.3L21.3,2.6z"/>
</svg>
