<?xml version="1.0" encoding="utf-8"?>
<!-- Generator: Adobe Illustrator 25.0.0, SVG Export Plug-In . SVG Version: 6.00 Build 0)  -->
<svg version="1.1" id="Layer_1" xmlns="http://www.w3.org/2000/svg" xmlns:xlink="http://www.w3.org/1999/xlink" x="0px" y="0px"
	 viewBox="0 0 95.1 110" style="enable-background:new 0 0 95.1 110;" xml:space="preserve">
<style type="text/css">
	.st0{fill:#4D4D4D;}
</style>
<g>
	<path class="st0" d="M13.6,109.9c-4.3-0.3-8.1-1.5-11.4-4.2c-0.8-0.7-1.5-1.6-2.1-2.5c-0.2-0.3-0.1-1.1,0.1-1.3
		c0.4-0.3,1.1-0.5,1.6-0.3c0.6,0.2,1.1,0.7,1.6,1.2c3.4,4,13.5,4.1,17.6,0.6c3-2.6,5.6-5.3,7.9-8.5c5.5-7.7,10-16,14.1-24.5
		c0.1-0.3,0.2-0.6,0.3-1c0-0.1-0.1-0.3-0.1-0.5c-9.9-0.5-14.6-2.2-21.2-5.2c-3.3-1.5-6.6-3.3-9.1-6.2c-6.5-7.5-7-18-2.3-24.9
		c3-4.5,7.1-7.9,12-10.3c6.5-3.2,13.3-3.3,20.2-1.8c0.2,0.1,0.5,0,0.9,0c0.2-0.4,0.5-0.8,0.8-1.2c1.3-1.6,2.8-2,4.6-1.1
		c1,0.5,2,1,2.9,1.6c0.7,0.5,1,1,1,2.1c0,6.3,0.1,12.5,0.1,18.7c0,2.5-0.1,8.4,0,8.4c0.1,0,1.2-1.9,1.5-2.5
		c2.4-4.2,4.6-8.6,7.3-12.7c3.7-5.6,8.8-9.6,15.7-10.4c3.5-0.4,6.7,0.4,9,3.5c0.3,0.5,0.8,1,0.9,1.5s0,1.5-0.3,1.8
		c-0.4,0.3-1.3,0.3-1.8,0c-1.1-0.5-2.1-1.5-3.3-1.8c-2.7-0.7-5.3-0.1-7.8,1c-5.2,2.3-8.7,6.3-11.3,11.1c-3.1,5.7-6,11.5-8.8,17.4
		c-0.4,0.8-0.9,1.6-1.1,2.5c-0.1,0.8-0.1,3.3,0.1,3.6c0.3,0.5,6.2,0.2,8.4,0.2c6.2,0.1,12.6,0.7,18.4,2.6c4.3,1.4,8.8,3,12,6.5
		c2.4,2.6,3,5.8,3.1,9.1c0.1,7.4-1.9,14.2-6.6,20c-3.3,4.1-7.9,5.6-13,6c-2.3,0.1-20.9,0.2-26.5,0.5c-0.8,0-1.7,0.1-2.5,0
		c-1.3-0.1-2.4-0.9-2.4-2.2c-0.2-2.7-1.5-5.5,0.3-8.1c0.2-0.3,0.1-0.8,0.1-1.2c0-5.5,0.1-18.5-0.1-19.3c-0.6,0.8-1.3,2.3-1.6,2.9
		c-2.8,4.9-5.5,9.8-8.6,14.6c-2.9,4.5-6.4,8.6-10.8,11.6C20.5,109.4,17.3,110.2,13.6,109.9z M83,96.7c0.8-1.3,1.3-2.7,1.9-4.2
		c2.4-6,2.3-11.7-2.1-16.5c-2.1-2.1-4.3-4.5-10.3-5.4c-2.7-0.2-5.4-0.5-8.1-0.6c-3.3-0.1-11-0.2-11.4-0.2c0,0.1,0.5,19.2,0.8,28
		c0.1,1.8,0.3,3.6,0.5,5.5c0.7,0.1,1.1,0.2,1.5,0.2c5.6,0,11.3-0.1,17,0.1C77.8,103.6,80.6,100.5,83,96.7z M43.5,27.7
		c0-2.2,0-2.2-2.1-2.7c-4.1-0.9-8.1-1-12.2,0.4c-4.8,1.7-7.7,5.5-9.8,9.6c-1.7,3.3-2,7.3-1.5,11c0.5,3.8,1.9,8,4.6,10.7
		c3.3,3.2,7.4,5.5,11.8,6.5c3.4,0.8,6.2,1,9.5,1.6C43.9,64.3,43.6,31.8,43.5,27.7z M42.7,3.4c0.1-2,2.2-3.5,4.8-3.4
		c2.1,0,3.6,1.8,3.5,4.1c-0.1,1.9-2.2,4.4-3.9,4.4C45.1,8.5,42.6,5.7,42.7,3.4z"/>
</g>
</svg>
