<?xml version="1.0" encoding="utf-8"?>
<!-- Generator: Adobe Illustrator 25.0.0, SVG Export Plug-In . SVG Version: 6.00 Build 0)  -->
<svg version="1.1" id="Layer_1" xmlns="http://www.w3.org/2000/svg" xmlns:xlink="http://www.w3.org/1999/xlink" x="0px" y="0px"
	 viewBox="0 0 51.9 60" style="enable-background:new 0 0 51.9 60;" xml:space="preserve">
<style type="text/css">
	.st0{fill:#FFC200;}
</style>
<g>
	<path class="st0" d="M7.4,60C5,59.8,3,59.1,1.2,57.7c-0.5-0.4-0.8-0.9-1.1-1.4C0,56.1,0,55.7,0.1,55.6c0.2-0.2,0.6-0.3,0.9-0.2
		c0.3,0.1,0.6,0.4,0.9,0.7c1.8,2.2,7.4,2.3,9.6,0.3c1.6-1.4,3.1-2.9,4.3-4.6c3-4.2,5.5-8.7,7.7-13.4c0.1-0.2,0.1-0.3,0.2-0.5
		c0-0.1,0-0.2-0.1-0.3c-5.4-0.3-7.9-1.2-11.6-2.8c-1.8-0.8-3.6-1.8-5-3.4c-3.6-4.1-3.8-9.8-1.3-13.6c1.6-2.4,3.9-4.3,6.5-5.6
		c3.6-1.7,7.3-1.8,11-1c0.1,0,0.3,0,0.5,0c0.1-0.2,0.3-0.4,0.4-0.7c0.7-0.9,1.5-1.1,2.5-0.6c0.5,0.3,1.1,0.5,1.6,0.9
		c0.4,0.3,0.5,0.6,0.5,1.1c0,3.4,0,6.8,0.1,10.2c0,1.4,0,4.6,0,4.6c0.1,0,0.6-1.1,0.8-1.4c1.3-2.3,2.5-4.7,4-6.9
		c2-3.1,4.8-5.2,8.6-5.7c1.9-0.2,3.7,0.2,4.9,1.9c0.2,0.3,0.4,0.5,0.5,0.8c0.1,0.3,0,0.8-0.2,1c-0.2,0.2-0.7,0.1-1,0
		c-0.6-0.3-1.1-0.8-1.8-1c-1.5-0.4-2.9-0.1-4.3,0.6c-2.8,1.3-4.8,3.4-6.2,6.1c-1.7,3.1-3.3,6.3-4.8,9.5c-0.2,0.4-0.5,0.9-0.6,1.4
		c-0.1,0.4-0.1,1.8,0.1,2c0.2,0.3,3.4,0.1,4.6,0.1c3.4,0.1,6.9,0.4,10.1,1.4c2.4,0.8,4.8,1.6,6.6,3.6c1.3,1.4,1.6,3.1,1.7,5
		c0.1,4.1-1,7.7-3.6,10.9c-1.8,2.2-4.3,3.1-7.1,3.3c-1.3,0.1-11.4,0.1-14.5,0.3c-0.5,0-0.9,0.1-1.4,0c-0.7-0.1-1.3-0.5-1.3-1.2
		c-0.1-1.5-0.8-3,0.2-4.4c0.1-0.2,0.1-0.4,0.1-0.7c0-3,0-10.1,0-10.5c-0.3,0.4-0.7,1.3-0.9,1.6c-1.5,2.7-3,5.4-4.7,8
		c-1.6,2.4-3.5,4.7-5.9,6.3C11.2,59.7,9.4,60.1,7.4,60z M45.3,52.8c0.4-0.7,0.7-1.5,1-2.3c1.3-3.3,1.3-6.4-1.2-9
		c-1.1-1.1-2.4-2.5-5.6-3c-1.5-0.1-2.9-0.3-4.4-0.3c-1.8-0.1-6-0.1-6.2-0.1c0,0.1,0.3,10.5,0.4,15.2c0,1,0.2,2,0.3,3
		c0.4,0,0.6,0.1,0.8,0.1c3.1,0,6.2,0,9.3,0C42.4,56.5,44,54.8,45.3,52.8z M23.7,15.1c0-1.2,0-1.2-1.1-1.5c-2.2-0.5-4.4-0.5-6.6,0.2
		c-2.6,0.9-4.2,3-5.3,5.2c-0.9,1.8-1.1,4-0.8,6c0.3,2.1,1,4.3,2.5,5.8c1.8,1.8,4,3,6.4,3.5c1.9,0.4,3.4,0.6,5.2,0.9
		C23.9,35.1,23.8,17.4,23.7,15.1z M23.3,1.9C23.4,0.8,24.5,0,25.9,0c1.1,0,1.9,1,1.9,2.2c0,1-1.2,2.4-2.1,2.4
		C24.6,4.6,23.2,3.1,23.3,1.9z"/>
</g>
</svg>
