<?xml version="1.0" encoding="utf-8"?>
<!-- Generator: Adobe Illustrator 25.0.0, SVG Export Plug-In . SVG Version: 6.00 Build 0)  -->
<svg version="1.1" id="Layer_1" xmlns="http://www.w3.org/2000/svg" xmlns:xlink="http://www.w3.org/1999/xlink" x="0px" y="0px"
	 viewBox="0 0 268 151.2" style="enable-background:new 0 0 268 151.2;" xml:space="preserve">
<style type="text/css">
	.st0{fill:#732828;}
</style>
<g>
	<path class="st0" d="M171.5,112.7c-1,1-2,2-2.9,3c-1.1,1.4-1.9,2.9-2.1,4.7c-0.2,1.7,0.6,3.1,1.9,3.7c1.2,0.5,2.4,0.1,3.6-1.2
		C174.8,120,174.2,115.2,171.5,112.7 M177.2,109.2c1.2,1.9,2.3,3.5,3.3,5.3c2.8,5.2,0.3,9.7-3.1,12.2c-3.3,2.5-7.6,2.3-11.1-0.4
		c-1.7-1.3-3-3-3.7-5.1c-0.8-2.6-0.2-5,1.4-7c1.1-1.4,2.4-2.8,3.8-4.2c-2.8-1.6-5.7-2.7-8.7-3.5c-7.1-1.9-14.3-2.1-21.5-1.3
		c-13.4,1.3-25.7,5.6-37.1,12.8c-6.4,4.1-12.1,9-16.4,15.4c-0.9,1.3-1.4,2.7-1.3,4.3c0.2,3.6-0.1,7.1-0.9,10.6
		c-0.1,0.3-0.2,0.6-0.2,0.9c-0.3,1-0.6,2-1.9,2c-1.4,0.1-2.5-0.4-2.9-1.7c-0.5-1.3-0.7-2.7-1-4c-0.6-3.2,0-6.3,1.1-9.4
		c0.4-1.2,0.4-2.3,0-3.5c-2.1-6.5-6-11.8-10.8-16.5c-6.1-6.1-13.3-10.7-20.5-15.4c-7.2-4.7-14.4-9.3-21.4-14.2
		C18,82,12.2,76.7,7.6,70.3C3.5,64.4,1,58,0.2,50.8c-0.8-7.3,0.4-14.5,2.5-21.5C7.2,14.6,17,5.3,31.6,1.3c17.3-4.8,34,4.5,40.5,17.9
		c1.7,3.5,2.6,7.1,3.2,11.2c1.3-1,2.5-2,3.7-2.9c5.7-4.2,12-7.2,19.1-8.1c8.5-1.1,16.3,1,23.6,5.5c3.9,2.4,7.1,5.6,9.3,9.6
		c4.2,7.8,4.2,15.9,0.5,23.8c-5.2,11.1-13.8,18.5-25.8,21.5c-5.3,1.3-10.5,0.9-15-2.5c-2.9-2.2-4.9-5.2-6.1-8.6
		c-0.8-2.3-0.5-4.5,0.5-6.7c2.3-5.1,8.7-8.3,14.2-7.2c2.2,0.5,2.7,1.8,1.3,3.5c-0.8,0.9-1.9,1.7-2.8,2.6c-3,2.6-4.2,7.6-2.7,11.2
		c0.7,1.7,2,2.5,3.7,2.8c5.9,0.9,11.2-0.5,16-3.8c7.5-5.2,13.2-12.1,14.4-21.2c0.9-7.1-1.3-13.6-5.9-19.2c-3.4-4.1-8.8-7.8-13.9-8.6
		c-10.5-1.5-19.6,1.5-28,7.5c-4.4,3.2-7.4,9-9.6,14c-0.2,0.4-0.5,0.8-0.7,1.2c-0.9,1.3-1.6,1.5-2.8,0.9c0-0.1,7-12.4,4-20.3
		c-2.6-6.8-5.4-12.1-13.6-15.7c-6.2-2.7-14-2.8-20.2-1.6C5.7,14.5-6,65.2,33,84.5c6.8,4.6,17.6,10.2,24.4,14.8
		c5.7,3.9,11,8.2,15.4,13.5c4.7,3.3,8.6,20.3,7.4,21c2-2.3,9.6-20.5,44.1-30.9c13.6-2.4,33.8-4.9,46,1.8c2.2,1.2,3.9,1.4,6.2,0.2
		c5.1-2.6,10.6-3.7,16.3-3.9c8-0.3,15.7,1.4,23.5,3c5.5,1.2,11.1,2.5,16.7,3.2c6.3,0.8,12.5,0.2,18.3-2.7c3-1.5,5.4-3.7,6.6-7
		c0.4-1.1,0.3-1.9-0.7-2.8c-1.5-1.2-2.9-2.7-3.3-4.7c-0.4-1.7,0.5-3.2,2.3-3.3c1.2-0.1,2.5,0.1,3.5,0.6c4.3,1.8,8.7,6.3,8.2,13
		c-0.3,4.3-2.5,7.5-5.8,10c-3.3,2.5-7,3.6-11.1,4.1c-7.5,0.9-14.9-0.4-22.1-2.1c-7.1-1.7-14-3.7-21.1-5.4c-10-2.5-19.9-2.1-29.5,1.7
		C178,108.8,177.6,109,177.2,109.2L177.2,109.2z"/>
</g>
</svg>
