<?xml version="1.0" encoding="utf-8"?>
<!-- Generator: Adobe Illustrator 25.0.0, SVG Export Plug-In . SVG Version: 6.00 Build 0)  -->
<svg version="1.1" id="Layer_1" xmlns="http://www.w3.org/2000/svg" xmlns:xlink="http://www.w3.org/1999/xlink" x="0px" y="0px"
	 viewBox="0 0 344 42.4" style="enable-background:new 0 0 344 42.4;" xml:space="preserve">
<style type="text/css">
	.st0{fill:#346673;}
</style>
<g>
	<path class="st0" d="M283.3,23.4c-5-0.2-10-0.5-15-0.5c-17.5,0.1-35.1,0.2-52.6,0.5c-13.2,0.3-26.3,0.9-39.5,1.4
		c-9.3,0.4-18.7,0.8-28,1.3c-11,0.7-22.1,1.5-33.1,2.3c-7.5,0.5-15,0.9-22.4,1.4c-15.7,1.2-31.3,2.5-47,3.7
		c-7.7,0.6-15.4,1.1-23.1,1.7c-1.7,0.1-2.9-0.3-3.3-2c-0.4-1.9,0.8-2.9,2.5-3.2c4.1-0.9,8.1-1.7,12.2-2.4c5.2-1,10.3-1.9,15.5-2.8
		c3.6-0.6,7.2-1.2,10.8-1.7c5.3-0.7,10.6-1.3,15.9-2c5.3-0.7,10.6-1.5,15.9-2.2c2.4-0.3,4.9-0.5,7.3-0.8c6.1-0.8,12.1-1.6,18.2-2.5
		c0.6-0.1,1.2-0.6,1.8-1c-0.6-0.2-1.2-0.5-1.8-0.5c-3.8,0.3-7.6,0.6-11.4,0.9c-1.7,0.1-3.4,0.1-5.1,0.2c-9.4,1-18.9,1.9-28.3,3.1
		c-9.8,1.3-19.6,2.8-29.4,4.3c-4.5,0.7-9.1,1.1-13.6,1.8c-4.8,0.8-9.7,1.7-14.4,2.8c-4.2,0.9-8.4,2.1-12.6,3
		c-0.8,0.2-2.3-0.5-2.6-1.3c-0.3-0.6,0.5-2.3,1.1-2.6C5,25.1,9,23.8,13,23c5.3-1.1,10.7-1.9,16-2.8c3.9-0.6,7.9-1.3,11.8-1.8
		c6.2-0.8,12.5-1.5,18.7-2.2c8-0.9,16-1.9,24-2.9c6.8-0.8,13.6-1.9,20.4-2.6c8.4-0.9,16.8-1.5,25.1-2.2c11.7-1,23.3-1.9,35-2.8
		c17.3-1.2,34.6-2.4,51.9-3.5c10.4-0.7,20.9-1.4,31.3-1.7c12.8-0.4,25.5-0.4,38.3-0.6c1.5,0,3,0,3.3,2c0.3,2.1-1,2.9-2.7,3.3
		C285.2,5.6,284.1,6,283,6c-17.4,1.3-34.8,2.5-52.2,3.8c-8.2,0.6-16.4,1.5-24.6,2.2c-0.6,0.1-1.2,0.1-1.8,0.2
		c-6.3,0.5-12.7,1-19,1.5c-7.2,0.6-14.4,1.1-21.6,1.8c-9.2,0.9-18.4,1.8-27.6,2.7c-5.9,0.6-11.8,1.1-17.7,1.8
		c-7.6,0.9-15.1,1.8-22.7,2.7c-4.5,0.5-8.9,1-13.4,1.6c-0.7,0.1-1.4,0.6-2.1,0.9c0.8,0.3,1.6,0.8,2.3,0.7c5.4-0.3,10.8-0.7,16.3-1.1
		c0.9-0.1,1.9-0.3,2.8-0.4c15.2-0.7,30.4-1.5,45.6-2.2c13.1-0.6,26.1-1.3,39.2-1.8c12.1-0.5,24.3-0.7,36.4-1
		c9.9-0.3,19.9-0.9,29.8-1c23.4-0.1,46.8-0.1,70.2,0c5.8,0,11.5,0.3,17.3,0.6c0.9,0,2.1,0.2,2.6,0.8c0.7,0.7,1.1,1.9,1.1,2.8
		c0,0.6-1,1.6-1.8,1.7c-3.4,0.7-6.8,1.5-10.3,1.7c-21,1.1-41.9,2.2-62.9,3c-11.3,0.5-22.6,0.6-33.9,0.9c-15.5,0.4-30.9,0.7-46.4,1.3
		c-11,0.4-22.1,1.1-33.1,1.7c-2.2,0.1-4.4,0.5-6.6,0.8c-0.5,0.1-1,0.7-1.5,1c0.5,0.3,1.1,0.9,1.6,1c3.1,0.1,6.1,0,9.2,0
		c8.8,0.1,17.5,0.3,26.3,0.4c6.6,0.1,13.3,0.2,19.9,0.4c13.9,0.4,27.7,0.9,41.6,1.3c1.2,0,2.4,0,3.6-0.1c1.7-0.1,3,0.5,2.9,2.3
		c-0.1,1.7-1.3,2.2-2.9,2.1c-12.7-0.4-25.3-0.7-38-1c-2.4-0.1-4.8-0.1-7.1-0.2c-15.6-0.5-31.1-1.3-46.7-1.3
		c-23.6-0.1-47.3,0.2-70.9,0.6c-7.5,0.1-15.1,1.2-22.6,1.8c-1.7,0.1-3.2,0.1-3.3-2c-0.1-2,1.4-2.1,3-2.3c11.9-1.3,23.8-2.8,35.7-4.1
		c8.7-1,17.4-1.8,26.1-2.6c3.2-0.3,6.4-0.6,9.6-0.8c12.8-0.9,25.6-1.9,38.4-2.6c8.5-0.5,17-0.6,25.5-0.8c20.3-0.6,40.6-1.2,61-1.7
		c5.3-0.1,10.7-0.1,16.1-0.3c2.4-0.1,4.7-0.7,7-1.1C283.3,23.8,283.3,23.6,283.3,23.4L283.3,23.4z"/>
</g>
</svg>
