<?xml version="1.0" encoding="utf-8"?>
<!-- Generator: Adobe Illustrator 25.0.0, SVG Export Plug-In . SVG Version: 6.00 Build 0)  -->
<svg version="1.1" id="Layer_1" xmlns="http://www.w3.org/2000/svg" xmlns:xlink="http://www.w3.org/1999/xlink" x="0px" y="0px"
	 viewBox="0 0 50 50" style="enable-background:new 0 0 50 50;" xml:space="preserve">
<style type="text/css">
	.st0{fill:#4D4D4D;}
</style>
<g>
	<path class="st0" d="M30.6,24.3c-0.7-0.4-1.5-0.7-2.3-0.9c-1.5-0.4-3-0.7-4.4-1.1c-0.6-0.2-1.2-0.4-1.8-0.8
		c-0.8-0.6-0.8-1.6-0.1-2.2c0.4-0.4,0.9-0.6,1.4-0.7c0.6-0.1,1.2-0.1,1.8-0.1c1.4,0,2.3,0.6,3,1.8c0.2,0.4,0.4,0.7,0.7,1
		c0.5,0.7,1.2,0.8,2,0.7c0.7-0.1,1.2-0.7,1.4-1.4c0.2-0.6,0-1.2-0.2-1.7c-0.5-1.1-1.4-1.9-2.5-2.5c-1.4-0.7-3-0.9-4.5-0.9
		c-0.4,0-0.8,0-1.2,0c-1.7,0.1-3.4,0.5-4.7,1.6c-1.6,1.3-2.1,2.9-1.6,4.8c0.4,1.7,1.6,2.6,3.1,3.3c1.4,0.6,3,1,4.5,1.3
		c1.1,0.2,2.2,0.4,3.1,1.1c0.9,0.7,1.1,2,0.3,2.8c-0.3,0.3-0.6,0.6-1,0.8c-1,0.5-2.1,0.5-3.2,0.4c-1.4-0.1-2.3-0.8-2.9-2
		c-0.2-0.4-0.4-0.8-0.6-1.1c-0.3-0.6-0.8-1-1.5-1.1c-1.6-0.2-2.6,1-2.2,2.6c0.6,2.3,2.2,3.6,4.4,4.3c2.4,0.7,4.8,0.7,7.2,0
		c1.3-0.4,2.4-1,3.3-2C33.8,30.2,34,26,30.6,24.3z"/>
	<path class="st0" d="M25,0C11.2,0,0,11.2,0,25s11.2,25,25,25c13.8,0,25-11.2,25-25S38.8,0,25,0z M32.8,39.8
		c-1.6,0.3-3.2,0.1-4.8-0.7c-0.2-0.1-0.4-0.1-0.7-0.1c-8,1.2-15.3-4.4-16.1-12.3c-0.1-0.5-0.1-1-0.1-1.4c0-0.8,0.1-1.6,0.2-2.3
		c0.1-0.4,0-0.7-0.1-1c-1.6-3.1-1-7,1.5-9.4c2.5-2.5,6.4-3.1,9.5-1.4c0.4,0.2,0.7,0.3,1.2,0.2c7.4-1,14.3,4.2,15.5,11.5
		c0.3,1.7,0.3,3.3-0.1,5c0,0.2,0,0.4,0.1,0.6C41.1,33.4,38.1,38.9,32.8,39.8z"/>
</g>
</svg>
