<?xml version="1.0" encoding="utf-8"?>
<!-- Generator: Adobe Illustrator 25.0.0, SVG Export Plug-In . SVG Version: 6.00 Build 0)  -->
<svg version="1.1" id="Layer_1" xmlns="http://www.w3.org/2000/svg" xmlns:xlink="http://www.w3.org/1999/xlink" x="0px" y="0px"
	 viewBox="0 0 50 50" style="enable-background:new 0 0 50 50;" xml:space="preserve">
<style type="text/css">
	.st0{fill:#29B200;}
	.st1{fill:#FFFFFF;}
</style>
<g>
	<ellipse class="st0" cx="25" cy="25" rx="25" ry="25"/>
	<path marker-end="none" marker-start="none" class="st1" d="M9.6,40.4l2.7-8.1C8.9,26.6,9.6,19,14.6,14.1c5.8-5.8,15.3-5.8,21.2,0
		c5.8,5.8,5.8,15.3,0,21.2c-4.8,4.8-12.2,5.7-17.9,2.5L9.6,40.4z M34.1,33.7c5-5,5-13,0-18c-5-5-13-5-18,0
		c-4.4,4.4-4.9,11.4-1.4,16.3l-0.9,2.6c0,0,0,0,0,0l-0.8,2.3l0,0l0,0l5-1.6C23.1,38.5,29.8,38,34.1,33.7z M28.1,31.6
		c-5.1-1.3-8.9-5-10.2-9.4c-0.4-1.3-0.1-2.9,1.2-3.8c0.3-0.3,0.7-0.4,1.4-0.4c0.3,0,0.6,0,0.9,0.4l1.2,2.8c0.1,0.4,0.1,0.7,0,1.1
		l-0.8,1c-0.2,0.2-0.2,0.5-0.1,0.8c1.2,1.9,2.8,3.4,5,4.2c0.3,0.1,0.6,0.1,0.9-0.2l1.2-1.4c0.2-0.2,0.5-0.3,0.8-0.2l3,1.4
		c0.1,0.1,0.3,0.3,0.3,0.5c-0.1,2.1-1.5,2.8-3.2,3.2C29.1,31.8,28.6,31.7,28.1,31.6z"/>
</g>
</svg>
