<?xml version="1.0" encoding="utf-8"?>
<!-- Generator: Adobe Illustrator 25.0.0, SVG Export Plug-In . SVG Version: 6.00 Build 0)  -->
<svg version="1.1" id="Layer_1" xmlns="http://www.w3.org/2000/svg" xmlns:xlink="http://www.w3.org/1999/xlink" x="0px" y="0px"
	 viewBox="0 0 50 50" style="enable-background:new 0 0 50 50;" xml:space="preserve">
<style type="text/css">
	.st0{fill:#4D4D4D;}
</style>
<g>
	<path class="st0" d="M25,0C11.2,0,0,11.2,0,25s11.2,25,25,25s25-11.2,25-25S38.8,0,25,0z M38.8,13.2l-5.1,26.6c0,0.1,0,0.1,0,0.2
		c-0.7,1.5-2,1.7-3.4,1c0,0-0.1,0-0.1-0.1l-7-5.4l-3.9,4c-0.1,0.1-0.2,0.2-0.4,0.2c-0.9,0.2-1.8-0.1-2.1-1.2l-2.8-8.9l-7.5-2.8
		c-0.1,0-0.2-0.1-0.2-0.1c-1.2-1.1-0.8-2.2,0.1-3c0.1-0.1,0.1-0.1,0.2-0.1L36,11.6c0.7-0.3,1.5-0.5,2.1-0.1l0,0l0.1,0l0,0
		c0.4,0.4,0.6,0.9,0.6,1.4C38.8,13.1,38.8,13.2,38.8,13.2z"/>
	<path class="st0" d="M37.4,12.7L37.4,12.7L37.4,12.7c-0.2-0.1-0.4-0.1-0.9,0.1L7.1,24.7l-0.2,0.2c-0.1,0.2-0.2,0.3-0.1,0.5L7,25.6
		l7.6,2.9c0.1,0,0.2,0.1,0.3,0.2l17.8-12l-14,14.7L17.9,38l0,0.1c0.1,0.2,0.2,0.4,0.4,0.4l0.1,0l4.2-4.3c0.2-0.2,0.6-0.3,0.9-0.1
		l7.4,5.7l0,0c0.7,0.3,1,0.3,1.3,0l0.2-0.4l5.1-26.4l0-0.2C37.4,12.8,37.4,12.8,37.4,12.7z"/>
</g>
</svg>
