<?xml version="1.0" encoding="utf-8"?>
<!-- Generator: Adobe Illustrator 25.0.0, SVG Export Plug-In . SVG Version: 6.00 Build 0)  -->
<svg version="1.1" id="Layer_1" xmlns="http://www.w3.org/2000/svg" xmlns:xlink="http://www.w3.org/1999/xlink" x="0px" y="0px"
	 viewBox="0 0 50 50" style="enable-background:new 0 0 50 50;" xml:space="preserve">
<style type="text/css">
	.st0{fill:#4D4D4D;}
</style>
<path class="st0" d="M25,0C11.2,0,0,11.2,0,25c0,13.8,11.2,25,25,25c13.8,0,25-11.2,25-25C50,11.2,38.8,0,25,0z M37.2,27.7
	c1.8,1.8,3.6,3.6,5,5.6c0.8,1.4,0.4,2.5-0.8,2.5h-5.7c-2.1,0-3.9-2.6-5.8-4.4c-0.8-0.7-1.3-0.7-1.7,0c-0.6,0.9-0.9,1.6-0.9,2.9
	c0.2,1-0.5,1.6-1.4,1.6h-3.2C13.6,34.3,9.8,25,5.5,16.7c-0.2-0.6-0.1-1.2,1.2-1.1h5.5c0.5,0,0.9,0.4,1.2,0.9
	c1.3,2.6,2.7,5.5,4.4,7.7c0.8,1,1.7,1.3,2,0.1c0.9-4.8,0.6-8.3-1.8-8.3c0.8-1.9,6-1.3,8.3-1.1c0.7,0.1,1.1,0.5,1.1,2v6.9
	c0,1,1,1.4,1.7,0.9c2.1-2.6,3.8-5.3,5-8.3c0.3-0.6,0.8-0.7,1.3-0.7l6.2-0.1c1,0,1.6,0.7,1,1.7c-1,2.4-3.3,5.2-5.4,7.9
	C36.6,26.1,36.3,26.9,37.2,27.7z"/>
</svg>
