<?xml version="1.0" encoding="utf-8"?>
<!-- Generator: Adobe Illustrator 25.0.0, SVG Export Plug-In . SVG Version: 6.00 Build 0)  -->
<svg version="1.1" id="Layer_1" xmlns="http://www.w3.org/2000/svg" xmlns:xlink="http://www.w3.org/1999/xlink" x="0px" y="0px"
	 viewBox="0 0 50 50" style="enable-background:new 0 0 50 50;" xml:space="preserve">
<style type="text/css">
	.st0{fill:#3B5796;}
	.st1{fill:#FFFFFF;}
</style>
<g>
	<path class="st0" d="M25,0c13.8,0,25,11.2,25,25c0,13.8-11.2,25-25,25C11.2,50,0,38.8,0,25C0,11.2,11.2,0,25,0L25,0z"/>
	<path class="st1" d="M33.3,6.9c-2.3,0-4.2,0-5.9,0c-4.4,0-7.1,2.7-7.1,7c0,1.5,0,2.9,0,4.7h-3.7v6.2h3.5v18.2H28V24.9h4.7l0.6-6.2
		h-5.6v-3.7c0-1.1,0.6-1.8,2-1.8h3.6L33.3,6.9z"/>
</g>
</svg>
