<?xml version="1.0" encoding="utf-8"?>
<!-- Generator: Adobe Illustrator 25.0.0, SVG Export Plug-In . SVG Version: 6.00 Build 0)  -->
<svg version="1.1" id="Layer_1" xmlns="http://www.w3.org/2000/svg" xmlns:xlink="http://www.w3.org/1999/xlink" x="0px" y="0px"
	 viewBox="0 0 50 50" style="enable-background:new 0 0 50 50;" xml:space="preserve">
<style type="text/css">
	.st0{fill:#5B7AA8;}
	.st1{fill:#FFFFFF;}
</style>
<g>
	<ellipse class="st0" cx="25" cy="25" rx="25" ry="25"/>
	<path marker-end="none" marker-start="none" class="st1" d="M12.1,15.6H6.7c-1.3-0.1-1.3,0.4-1.2,1.1c4.3,8.3,8.1,17.6,17,19.1h3.2
		c1,0,1.6-0.6,1.4-1.6c0-1.3,0.3-2,0.9-2.9c0.4-0.7,1-0.7,1.7,0c1.9,1.8,3.7,4.5,5.8,4.4h5.7c1.3,0,1.7-1.2,0.8-2.5
		c-1.4-2-3.2-3.8-5.1-5.6c-0.8-0.8-0.6-1.6,0-2.5c2.1-2.8,4.4-5.6,5.4-7.9c0.5-1.1,0-1.7-1-1.7l-6.2,0.1c-0.6,0-1.1,0.1-1.3,0.7
		c-1.1,2.9-2.8,5.7-5,8.3c-0.7,0.5-1.7,0.1-1.7-0.9v-6.9c0-1.4-0.4-1.8-1.1-2c-2.3-0.2-7.5-0.8-8.3,1.1c2.4,0.1,2.7,3.5,1.8,8.3
		c-0.3,1.1-1.2,0.9-2-0.1c-1.7-2.2-3.1-5.1-4.4-7.7C13,16.1,12.7,15.6,12.1,15.6z"/>
</g>
</svg>
