<?xml version="1.0" encoding="utf-8"?>
<!-- Generator: Adobe Illustrator 25.0.0, SVG Export Plug-In . SVG Version: 6.00 Build 0)  -->
<svg version="1.1" id="Layer_1" xmlns="http://www.w3.org/2000/svg" xmlns:xlink="http://www.w3.org/1999/xlink" x="0px" y="0px"
	 viewBox="0 0 50 50" style="enable-background:new 0 0 50 50;" xml:space="preserve">
<style type="text/css">
	.st0{fill:#00A9F0;}
	.st1{fill:#FEFEFE;}
</style>
<g>
	<path marker-end="none" marker-start="none" class="st0" d="M50,25c0,13.8-11.2,25-25,25C11.2,50,0,38.8,0,25S11.2,0,25,0
		C38.8,0,50,11.2,50,25L50,25z"/>
	<path marker-end="none" marker-start="none" class="st1" d="M32,32.2c-0.9,1-2,1.7-3.3,2c-2.4,0.7-4.8,0.7-7.2,0
		c-2.2-0.7-3.8-2-4.4-4.3c-0.5-1.6,0.6-2.8,2.2-2.6c0.7,0.1,1.1,0.5,1.5,1.1c0.2,0.4,0.4,0.7,0.6,1.1c0.6,1.2,1.5,1.9,2.9,2
		c1.1,0.1,2.2,0,3.2-0.4c0.4-0.2,0.7-0.4,1-0.8c0.8-0.9,0.6-2.1-0.3-2.8c-0.9-0.7-2-0.9-3.1-1.1c-1.5-0.3-3.1-0.7-4.5-1.3
		c-1.5-0.7-2.7-1.6-3.1-3.3c-0.5-1.9,0.1-3.6,1.6-4.8c1.4-1.1,3-1.5,4.7-1.6c0.4,0,0.8,0,1.2,0c1.6,0,3.1,0.2,4.5,0.9
		c1.1,0.6,2,1.3,2.5,2.5c0.3,0.6,0.4,1.1,0.2,1.7c-0.2,0.7-0.7,1.2-1.4,1.4c-0.8,0.2-1.5,0-2-0.7c-0.2-0.3-0.5-0.7-0.7-1
		c-0.7-1.1-1.6-1.8-3-1.8c-0.6,0-1.2,0-1.8,0.1c-0.5,0.1-1,0.4-1.4,0.7c-0.7,0.7-0.7,1.6,0.1,2.2c0.5,0.4,1.1,0.6,1.8,0.8
		c1.5,0.4,3,0.7,4.4,1.1c0.8,0.2,1.6,0.5,2.3,0.9C34,26,33.8,30.2,32,32.2 M39,28.5c-0.1-0.2-0.1-0.4-0.1-0.6c0.3-1.7,0.3-3.3,0.1-5
		c-1.2-7.4-8.2-12.5-15.5-11.5c-0.4,0.1-0.8,0-1.2-0.2c-3.1-1.7-6.9-1.1-9.5,1.4c-2.5,2.5-3.1,6.3-1.5,9.4c0.2,0.3,0.2,0.6,0.1,1
		c-0.2,0.7-0.2,1.5-0.2,2.3c0,0.4,0,0.9,0.1,1.4c0.8,8,8.1,13.6,16.1,12.3c0.2,0,0.4,0,0.7,0.1c1.5,0.8,3.1,0.9,4.8,0.7
		C38.1,38.9,41.1,33.4,39,28.5L39,28.5z"/>
</g>
</svg>
