<?xml version="1.0" encoding="utf-8"?>
<!-- Generator: Adobe Illustrator 25.0.0, SVG Export Plug-In . SVG Version: 6.00 Build 0)  -->
<svg version="1.1" id="Layer_1" xmlns="http://www.w3.org/2000/svg" xmlns:xlink="http://www.w3.org/1999/xlink" x="0px" y="0px"
	 viewBox="0 0 50 50" style="enable-background:new 0 0 50 50;" xml:space="preserve">
<style type="text/css">
	.st0{fill:#FF0000;}
	.st1{fill:#FFFFFF;}
</style>
<g>
	<ellipse class="st0" cx="25" cy="25" rx="25" ry="25"/>
	<path marker-end="none" marker-start="none" class="st1" d="M24.7,36.1L24.7,36.1c-3.5,0-7.7-0.1-10.9-0.5
		c-3.3-0.4-4.2-2.5-4.4-5.8C9.3,28,9.2,26.5,9.2,25c0-1.5,0.1-3,0.2-4.8c0.2-3.4,1-5.4,4.4-5.8c3.2-0.4,7.4-0.4,10.9-0.5v0
		c0.1,0,0.2,0,0.3,0c0.1,0,0.2,0,0.3,0v0c3.5,0,7.7,0.1,10.9,0.5c3.3,0.4,4.2,2.5,4.4,5.8c0.1,1.8,0.2,3.2,0.2,4.8
		c0,1.5-0.1,3-0.2,4.8c-0.2,3.4-1,5.4-4.4,5.8c-3.2,0.4-7.4,0.4-10.9,0.5l0,0c-0.1,0-0.2,0-0.3,0C24.9,36.1,24.8,36.1,24.7,36.1z
		 M21.8,29.7L30,25l-8.1-4.7V29.7z"/>
</g>
</svg>
