<?xml version="1.0" encoding="utf-8"?>
<!-- Generator: Adobe Illustrator 25.0.0, SVG Export Plug-In . SVG Version: 6.00 Build 0)  -->
<svg version="1.1" id="Layer_1" xmlns="http://www.w3.org/2000/svg" xmlns:xlink="http://www.w3.org/1999/xlink" x="0px" y="0px"
	 viewBox="0 0 50 50" style="enable-background:new 0 0 50 50;" xml:space="preserve">
<style type="text/css">
	.st0{fill:#4D4D4D;}
</style>
<g>
	<path class="st0" d="M16.2,15.7c-4.4,4.4-4.9,11.4-1.4,16.3l-0.9,2.6c0,0,0,0,0,0l-0.8,2.3l0,0l5-1.6c4.9,3.2,11.6,2.7,15.9-1.7
		c5-5,5-13,0-18C29.2,10.7,21.1,10.7,16.2,15.7z M29.7,31.8c-0.6,0-1.1,0-1.6-0.2c-5.1-1.3-8.9-5-10.2-9.4c-0.4-1.3-0.1-2.9,1.2-3.8
		c0.3-0.3,0.7-0.4,1.4-0.4c0.3,0,0.6,0,0.9,0.4l1.2,2.9c0.1,0.4,0.1,0.7,0,1.1l-0.8,1c-0.2,0.2-0.2,0.5-0.1,0.8
		c1.2,1.9,2.8,3.4,5,4.2c0.3,0.1,0.6,0.1,0.9-0.2l1.2-1.4c0.2-0.2,0.5-0.3,0.8-0.2l3,1.4c0.1,0.1,0.3,0.3,0.3,0.5
		C32.8,30.7,31.4,31.4,29.7,31.8z"/>
	<path class="st0" d="M25,0C11.2,0,0,11.2,0,25s11.2,25,25,25s25-11.2,25-25S38.8,0,25,0z M35.8,35.3c-4.8,4.8-12.2,5.7-17.9,2.5
		l-8.3,2.6l2.7-8.1C8.9,26.6,9.6,19,14.6,14.1c5.8-5.8,15.3-5.8,21.2,0C41.6,19.9,41.6,29.4,35.8,35.3z"/>
</g>
</svg>
