<?xml version="1.0" encoding="utf-8"?>
<!-- Generator: Adobe Illustrator 25.0.0, SVG Export Plug-In . SVG Version: 6.00 Build 0)  -->
<svg version="1.1" id="Layer_1" xmlns="http://www.w3.org/2000/svg" xmlns:xlink="http://www.w3.org/1999/xlink" x="0px" y="0px"
	 viewBox="0 0 50 50" style="enable-background:new 0 0 50 50;" xml:space="preserve">
<style type="text/css">
	.st0{fill:#4D4D4D;}
</style>
<g>
	<path class="st0" d="M25,0C11.2,0,0,11.2,0,25s11.2,25,25,25s25-11.2,25-25S38.8,0,25,0z M40.6,29.8c-0.2,3.4-1,5.4-4.4,5.8
		c-3.2,0.4-7.4,0.4-10.9,0.5l0,0c-0.1,0-0.2,0-0.3,0s-0.2,0-0.3,0l0,0c-3.5,0-7.7-0.1-10.9-0.5c-3.3-0.4-4.2-2.5-4.4-5.8
		C9.3,28,9.2,26.5,9.2,25c0-1.5,0.1-3,0.2-4.8c0.2-3.4,1-5.4,4.4-5.8c3.2-0.4,7.4-0.4,10.9-0.5v0c0.1,0,0.2,0,0.3,0
		c0.1,0,0.2,0,0.3,0v0c3.5,0,7.7,0.1,10.9,0.5c3.3,0.4,4.2,2.5,4.4,5.8c0.1,1.8,0.2,3.2,0.2,4.8C40.8,26.5,40.7,28,40.6,29.8z"/>
	<polygon class="st0" points="21.8,29.7 30,25 21.8,20.3 	"/>
</g>
</svg>
