<?xml version="1.0" encoding="utf-8"?>
<!-- Generator: Adobe Illustrator 25.0.0, SVG Export Plug-In . SVG Version: 6.00 Build 0)  -->
<svg version="1.1" id="Layer_1" xmlns="http://www.w3.org/2000/svg" xmlns:xlink="http://www.w3.org/1999/xlink" x="0px" y="0px"
	 viewBox="0 0 50 50" style="enable-background:new 0 0 50 50;" xml:space="preserve">
<style type="text/css">
	.st0{fill:#4D4D4D;}
</style>
<g>
	<path class="st0" d="M31.7,25c0,3.6-3,6.7-6.7,6.7s-6.7-3-6.7-6.7c0-0.8,0.2-1.8,0.5-2.5h-3.6v10c0,1.2,1,2.3,2.3,2.3h15
		c1.2,0,2.3-1,2.3-2.3v-10h-3.6C31.5,23.2,31.7,24.2,31.7,25z"/>
	<polygon class="st0" points="34.4,16.1 34.4,15.6 33.9,15.6 30.2,15.6 30.2,19.8 34.4,19.8 	"/>
	<path class="st0" d="M25,29.3c2.3,0,4.3-1.9,4.3-4.3c0-0.9-0.3-1.8-0.8-2.5c-0.7-1-2.1-1.8-3.4-1.8s-2.7,0.7-3.4,1.8
		c-0.5,0.7-0.8,1.6-0.8,2.5C20.7,27.4,22.7,29.3,25,29.3z"/>
	<path class="st0" d="M25,0C11.2,0,0,11.2,0,25c0,13.8,11.2,25,25,25s25-11.2,25-25C50,11.2,38.8,0,25,0z M37.2,22.5v10
		c0,2.6-2.1,4.7-4.7,4.7h-15c-2.6,0-4.7-2.1-4.7-4.7v-10v-5c0-2.6,2.1-4.7,4.7-4.7h15c2.6,0,4.7,2.1,4.7,4.7V22.5z"/>
</g>
</svg>
