<?xml version="1.0" encoding="utf-8"?>
<!-- Generator: Adobe Illustrator 25.0.0, SVG Export Plug-In . SVG Version: 6.00 Build 0)  -->
<svg version="1.1" id="Layer_1" xmlns="http://www.w3.org/2000/svg" xmlns:xlink="http://www.w3.org/1999/xlink" x="0px" y="0px"
	 viewBox="0 0 50 50" style="enable-background:new 0 0 50 50;" xml:space="preserve">
<style type="text/css">
	.st0{fill:#49C9F6;}
	.st1{fill:#FFFFFF;}
</style>
<g>
	<ellipse class="st0" cx="25" cy="25" rx="25" ry="25"/>
	<path marker-end="none" marker-start="none" class="st1" d="M8.6,12.1c4.7,5.3,10.4,8.2,17.2,8.6c-1.1-3.7,1.3-10.2,8-10.2
		c2.8,0,4.2,1.1,5.9,2.5c1.9-0.4,3.6-1,5.2-2c-0.6,1.7-1.6,3.2-3.5,4.7c1.7-0.2,3.3-0.7,4.8-1.4C45,16,43.7,17.6,42,18.8
		c0,14.7-10.5,24.5-23.1,24.5c-5.3,0-9.2-1.7-13-3.6c4.4,0.3,8.5-0.7,12-3.5c-4.1-0.6-6.4-2.7-7.5-5.8c1.3,0.3,2.5,0.3,3.6-0.2
		c-3.3-1.2-6.6-3.3-6.4-8.2c1.1,0.6,2.3,1,3.5,1C8.2,20.4,6.3,17.2,8.6,12.1z"/>
</g>
</svg>
