<?xml version="1.0" encoding="utf-8"?>
<!-- Generator: Adobe Illustrator 25.0.0, SVG Export Plug-In . SVG Version: 6.00 Build 0)  -->
<svg version="1.1" id="Layer_1" xmlns="http://www.w3.org/2000/svg" xmlns:xlink="http://www.w3.org/1999/xlink" x="0px" y="0px"
	 viewBox="0 0 50 50" style="enable-background:new 0 0 50 50;" xml:space="preserve">
<style type="text/css">
	.st0{fill:#4D4D4D;}
</style>
<g>
	<path class="st0" d="M25,19.5c2.2,0,3.9-1.7,3.9-3.9c0-2.1-1.7-3.9-3.9-3.9c-2.1,0-3.9,1.7-3.9,3.9C21.1,17.7,22.9,19.5,25,19.5z"
		/>
	<path class="st0" d="M25,0C11.2,0,0,11.2,0,25s11.2,25,25,25s25-11.2,25-25S38.8,0,25,0z M25,6c5.3,0,9.6,4.3,9.6,9.6
		s-4.3,9.6-9.6,9.6c-5.3,0-9.6-4.3-9.6-9.6C15.4,10.3,19.7,6,25,6z M34.2,38c1.1,1.1,1.1,2.8,0,3.9c-1.1,1.1-2.8,1.1-3.9,0L25,36.7
		l-5.2,5.2c-1.1,1.1-2.8,1.1-3.9,0c-1.1-1.1-1.1-2.8,0-3.9l5.3-5.3c-1.9-0.4-3.7-1.2-5.5-2.3c-1.3-0.8-1.7-2.5-1-3.8
		c0.8-1.3,2.5-1.7,3.8-0.9c2.2,1.3,4.3,1.9,6.4,1.9c2.1,0,4.3-0.6,6.8-1.9c1.3-0.7,3-0.2,3.8,1.1c0.7,1.3,0.2,3-1.1,3.8
		c-1.8,1-3.6,1.7-5.5,2.1L34.2,38z"/>
</g>
</svg>
