<?xml version="1.0" encoding="utf-8"?>
<!-- Generator: Adobe Illustrator 25.0.0, SVG Export Plug-In . SVG Version: 6.00 Build 0)  -->
<svg version="1.1" id="Layer_1" xmlns="http://www.w3.org/2000/svg" xmlns:xlink="http://www.w3.org/1999/xlink" x="0px" y="0px"
	 viewBox="0 0 50 50" style="enable-background:new 0 0 50 50;" xml:space="preserve">
<style type="text/css">
	.st0{fill:#F46600;}
	.st1{fill:#FFFFFF;}
</style>
<g>
	<ellipse class="st0" cx="25" cy="25" rx="25" ry="25"/>
	<path marker-end="none" marker-start="none" class="st1" d="M15.9,41.9c-1.1-1.1-1.1-2.8,0-3.9l5.3-5.3c-1.9-0.4-3.7-1.2-5.5-2.3
		c-1.3-0.8-1.7-2.5-1-3.8c0.8-1.3,2.5-1.7,3.8-0.9c2.2,1.3,4.3,1.9,6.4,1.9c2.1,0,4.3-0.6,6.8-1.9c1.3-0.7,3-0.2,3.8,1.1
		c0.7,1.3,0.2,3-1.1,3.8c-1.8,1-3.6,1.7-5.5,2.1l5.4,5.4c1.1,1.1,1.1,2.8,0,3.9c-1.1,1.1-2.8,1.1-3.9,0L25,36.7l-5.2,5.2
		C18.7,43,16.9,43,15.9,41.9z M15.4,15.6c0-5.3,4.3-9.6,9.6-9.6c5.3,0,9.6,4.3,9.6,9.6s-4.3,9.6-9.6,9.6
		C19.7,25.2,15.4,20.9,15.4,15.6z M28.9,15.6c0-2.1-1.7-3.9-3.9-3.9c-2.1,0-3.9,1.7-3.9,3.9c0,2.2,1.7,3.9,3.9,3.9
		C27.2,19.5,28.9,17.7,28.9,15.6z"/>
</g>
</svg>
