<?xml version="1.0" encoding="utf-8"?>
<!-- Generator: Adobe Illustrator 25.0.0, SVG Export Plug-In . SVG Version: 6.00 Build 0)  -->
<svg version="1.1" id="Layer_1" xmlns="http://www.w3.org/2000/svg" xmlns:xlink="http://www.w3.org/1999/xlink" x="0px" y="0px"
	 viewBox="0 0 50 50" style="enable-background:new 0 0 50 50;" xml:space="preserve">
<style type="text/css">
	.st0{fill:#4D4D4D;}
</style>
<path class="st0" d="M25,0C11.2,0,0,11.2,0,25c0,13.8,11.2,25,25,25c13.8,0,25-11.2,25-25C50,11.2,38.8,0,25,0z M33.3,18.7l-0.6,6.2
	H28v18.2h-7.9V24.9h-3.5v-6.2h3.7c0-1.8,0-3.2,0-4.7c0-4.3,2.7-7,7.1-7c1.6,0,3.6,0,5.9,0l0.1,6.2h-3.6c-1.4,0-2,0.7-2,1.8v3.7
	L33.3,18.7L33.3,18.7z"/>
</svg>
