<?xml version="1.0" encoding="utf-8"?>
<!-- Generator: Adobe Illustrator 25.0.0, SVG Export Plug-In . SVG Version: 6.00 Build 0)  -->
<svg version="1.1" id="Layer_1" xmlns="http://www.w3.org/2000/svg" xmlns:xlink="http://www.w3.org/1999/xlink" x="0px" y="0px"
	 viewBox="0 0 50 50" style="enable-background:new 0 0 50 50;" xml:space="preserve">
<style type="text/css">
	.st0{fill:#E0218B;}
	.st1{fill:#FFFFFF;}
</style>
<g>
	<path marker-end="none" marker-start="none" class="st0" d="M25,0c13.8,0,25,11.2,25,25S38.8,50,25,50S0,38.8,0,25
		C0,11.2,11.2,0,25,0L25,0z"/>
	<path marker-end="none" marker-start="none" class="st1" d="M34.8,32.5c0,1.2-1,2.3-2.3,2.3h-15c-1.2,0-2.3-1-2.3-2.3v-10h3.6
		c-0.3,0.7-0.5,1.7-0.5,2.5c0,3.6,3,6.7,6.7,6.7c3.6,0,6.7-3,6.7-6.7c0-0.8-0.2-1.8-0.5-2.5h3.6L34.8,32.5L34.8,32.5z M21.6,22.5
		c0.7-1,2.1-1.8,3.4-1.8c1.4,0,2.7,0.7,3.4,1.8c0.5,0.7,0.8,1.6,0.8,2.5c0,2.4-2,4.3-4.3,4.3s-4.3-1.9-4.3-4.3
		C20.7,24.1,21,23.2,21.6,22.5 M33.9,15.6h0.5v0.5v3.6h-4.2v-4.2H33.9z M32.5,12.8h-15c-2.6,0-4.7,2.1-4.7,4.7v5v10
		c0,2.6,2.1,4.7,4.7,4.7h15c2.6,0,4.7-2.1,4.7-4.7v-10v-5C37.2,14.9,35.1,12.8,32.5,12.8L32.5,12.8z"/>
</g>
</svg>
