<?xml version="1.0" encoding="utf-8"?>
<!-- Generator: Adobe Illustrator 25.0.0, SVG Export Plug-In . SVG Version: 6.00 Build 0)  -->
<svg version="1.1" id="Layer_1" xmlns="http://www.w3.org/2000/svg" xmlns:xlink="http://www.w3.org/1999/xlink" x="0px" y="0px"
	 viewBox="0 0 50 50" style="enable-background:new 0 0 50 50;" xml:space="preserve">
<style type="text/css">
	.st0{fill:#239ED9;}
	.st1{fill:#FFFFFF;}
</style>
<g>
	<ellipse class="st0" cx="25" cy="25" rx="25" ry="25"/>
	<path marker-end="none" marker-start="none" class="st1" d="M30.2,41c0,0-0.1,0-0.1-0.1l-7-5.4l-3.9,4c-0.1,0.1-0.2,0.2-0.4,0.2
		c-0.9,0.2-1.8-0.1-2.1-1.2l-2.8-8.9l-7.5-2.8c-0.1,0-0.2-0.1-0.2-0.1c-1.2-1.1-0.8-2.2,0.1-3c0.1-0.1,0.1-0.1,0.2-0.1L36,11.6
		c0.7-0.3,1.5-0.5,2.1-0.1l0,0l0.1,0l0,0c0.4,0.4,0.6,0.9,0.6,1.4c0,0,0,0.1,0,0.1l-5.1,26.6c0,0.1,0,0.1,0,0.2
		C32.9,41.5,31.6,41.6,30.2,41z M32.1,39.8l0.2-0.4l5.1-26.4l0-0.2c0-0.1,0-0.1,0-0.1l0-0.1l0,0c-0.1,0-0.3,0-0.8,0.2L7.1,24.7
		l-0.2,0.2c-0.1,0.2-0.2,0.3-0.1,0.5L7,25.6l7.6,2.9c0.1,0,0.2,0.1,0.3,0.2l17.8-12l-14,14.7L17.9,38l0,0.1c0.1,0.2,0.2,0.3,0.4,0.4
		l0.1,0l4.2-4.3c0.2-0.2,0.6-0.3,0.9-0.1l7.4,5.7l0,0C31.4,40.1,31.8,40.1,32.1,39.8z"/>
</g>
</svg>
