<?xml version="1.0" encoding="utf-8"?>
<!-- Generator: Adobe Illustrator 25.0.0, SVG Export Plug-In . SVG Version: 6.00 Build 0)  -->
<svg version="1.1" id="Layer_1" xmlns="http://www.w3.org/2000/svg" xmlns:xlink="http://www.w3.org/1999/xlink" x="0px" y="0px"
	 viewBox="0 0 70 49.8" style="enable-background:new 0 0 70 49.8;" xml:space="preserve">
<style type="text/css">
	.st0{opacity:0.5;}
	.st1{fill:#FFFFFF;}
	.st2{opacity:0.6;fill-rule:evenodd;clip-rule:evenodd;fill:#FFFFFF;}
</style>
<g>
	<path class="st0" d="M34.4,48.8L34.4,48.8c-7.6,0-16.6-0.1-23.5-1c-7.2-0.9-9.1-5.3-9.5-12.6c-0.2-4-0.4-7-0.3-10.3
		c0-3.3,0.1-6.4,0.3-10.3C1.7,7.3,3.6,2.9,10.8,2c7-0.8,15.9-1,23.5-1v0c0.2,0,0.4,0,0.6,0c0.2,0,0.4,0,0.6,0v0
		c7.6,0,16.6,0.1,23.5,1c7.2,0.9,9.1,5.3,9.5,12.6c0.2,4,0.4,7,0.4,10.3c0,3.3-0.1,6.4-0.4,10.3c-0.4,7.3-2.2,11.7-9.5,12.6
		c-7,0.9-15.9,1-23.5,1l0,0c-0.2,0-0.4,0-0.6,0C34.8,48.8,34.6,48.8,34.4,48.8z M28.2,35l17.6-10.2L28.2,14.7V35z"/>
	<polygon class="st1" points="28.2,35 45.7,24.8 28.2,14.7 	"/>
	<path class="st2" d="M10.7,48.8c-7.9-1-9.9-6.1-10.3-13.5c-0.2-4-0.4-7-0.4-10.4c0-3.4,0.1-6.4,0.4-10.4C0.7,7,2.8,2,10.7,1
		c7-0.9,16.1-1,23.7-1c0.2,0,0.4,0,0.6,0c0.2,0,0.4,0,0.6,0c7.6,0,16.6,0.1,23.7,1c8,1,9.9,6.1,10.3,13.5c0.2,4,0.4,7,0.4,10.4
		c0,3.4-0.1,6.4-0.4,10.4c-0.4,7.5-2.4,12.5-10.3,13.5c-7,0.9-16.1,1-23.7,1c-0.2,0-0.4,0-0.6,0c-0.2,0-0.4,0-0.6,0
		C26.8,49.8,17.7,49.7,10.7,48.8z M35,47.8l0.6,0c7.6,0,16.5-0.1,23.4-1c6.5-0.8,8.2-4.5,8.6-11.6c0.2-4,0.4-7,0.3-10.3
		c0-3.3-0.1-6.3-0.3-10.3c-0.4-7-2-10.8-8.6-11.6c-6.9-0.8-15.8-1-23.4-1H35h-0.6c-7.6,0-16.5,0.1-23.4,1C4.4,3.8,2.7,7.5,2.4,14.6
		c-0.2,4-0.4,7-0.4,10.3c0,3.3,0.1,6.3,0.4,10.3c0.4,7,2,10.8,8.6,11.6c6.9,0.8,15.8,1,23.4,1L35,47.8z"/>
</g>
</svg>
