<?xml version="1.0" encoding="utf-8"?>
<!-- Generator: Adobe Illustrator 25.0.0, SVG Export Plug-In . SVG Version: 6.00 Build 0)  -->
<svg version="1.1" id="Layer_1" xmlns="http://www.w3.org/2000/svg" xmlns:xlink="http://www.w3.org/1999/xlink" x="0px" y="0px"
	 viewBox="0 0 236 191.8" style="enable-background:new 0 0 236 191.8;" xml:space="preserve">
<style type="text/css">
	.st0{fill-rule:evenodd;clip-rule:evenodd;fill:#335B32;}
</style>
<g>
	<path class="st0" d="M31.7,30.4c23.1-25.2,77.1-46.1,103.4-14.2c0.9,1.1,0.8,2.8-0.4,3.8c-1.1,0.9-3.6,1.3-4.5,0.1
		C112.6-12.8,56.2,6,33.4,30.9c-37.7,41.1-56.6,168,80.9,145.9c40.4-6.5,89.5-51.7,79.2-76.1l-0.7-4.1l-13,6
		c-6.7,2.8-14.2,5.3-20.5,5.9l-2.4,0.1l-2.7,4.9c-2,3.1-4.3,6-7.1,8.4l-0.4,0.3l-0.6,4.5c-3.5,11.8-15.4,22.5-24.6,25.6
		c-41.5,13.8-84-19.6-59.2-67.8c7.9-15.3,17.3-24,30.2-31.1c42.8-23.7,82.3-5.2,97.3,25.8l4.3,13.5c21-9.7,32.6-29.1,36.4-56.4
		c1.1-12.9-3.6-26.8-19.2-27.6c-7.2-0.4-15.3,5.5-17.9,10.7c-2.6,5.2,0.2,13.2,4.5,13.2c1.5,0,3.6-1.3,3.6,0.2
		c0,1.5-1.2,2.7-2.7,2.7c-10.2,0-10.7-9.5-7.6-15.8C194.4,13,202.1,6.4,212,7c19.7,1.1,25.1,15.1,23.8,29.7
		c-1.3,14.3-8.7,30.3-15.7,38.6c-4.4,5.3-10.8,10.6-17.9,15.3l-7.5,4.4l1.2,6.3c1.8,19.5-5.4,40.8-25.2,58.9
		c-17.9,16.3-37.8,28.8-71,31.1C-30.5,200.5-9.9,75.8,31.7,30.4z M119.7,147.1c12.6-5.8,21.7-13.3,24.8-23.8l-7.6,3.8
		c-4,1.1-8.7,1.6-14.4,1c-19.3-1.8-22.2-13.8-14.7-22.4c6.7-7.6,21.3-11.7,32.9-0.1c2.1,2.1,3.6,4.4,4.6,6.7l1.1,4.3
		c3.6-2.4,5.9-5.1,7.2-8.1c-4.4,0.1-6.8-1.7-7.9-4.9c-2.2-4.7,1.3-7.8,4.2-8.9c2.6-1,7-1.1,9.3,1.7c0.4,0.5,0.8,1.1,1,1.8
		c0.3,0.8,0.3,1.7,0.2,2.6c-0.3,2-1.2,4-2.9,5.8c12-1.8,24.3-5.3,34.6-13.2l-0.6-3.2c-9.5-34.2-54-59-98.2-34.5
		c-12,6.7-19.2,17-26.5,31.2C48.7,127.3,81.5,159.9,119.7,147.1z M144.7,118.8c-6.5-19.2-27.2-20.6-34.1-10.9
		c-3.8,5.4-4.2,14.1,12,15.6C131.5,124.3,139.1,122.3,144.7,118.8z M159.2,98.4c-2.7-5.3-12.5-3-11.9,2.5c-0.3,3.8,3.6,5,7.3,5.7
		C156.6,105.3,159.2,102.2,159.2,98.4z"/>
</g>
</svg>
