<?xml version="1.0" encoding="utf-8"?>
<!-- Generator: Adobe Illustrator 25.0.0, SVG Export Plug-In . SVG Version: 6.00 Build 0)  -->
<svg version="1.1" id="Layer_1" xmlns="http://www.w3.org/2000/svg" xmlns:xlink="http://www.w3.org/1999/xlink" x="0px" y="0px"
	 viewBox="0 0 271 113.1" style="enable-background:new 0 0 271 113.1;" xml:space="preserve">
<style type="text/css">
	.st0{fill-rule:evenodd;clip-rule:evenodd;fill:#7D5F31;}
	.st1{fill:#7D5F31;}
</style>
<g>
	<path class="st0" d="M37.4,103.7c9.8-14.1,25.2-31,38.3-46.5c11.7-14,23.4-26,26.9-35.3c2.6-3.3,2.4-6.9,0.8-7.6
		c-20.3-0.9-84.1,55.5-80,59.5c-0.1,0-0.1,0.1-0.2,0.1l-0.1,0c-2.7,1.9-6-1.4-4.2-4.1c12.2-18.2,37.4-32.4,51.2-51.5
		c5.2-7.2,9.3-22.1-8.8-14c-5.1,2.3-12.6,7.5-17,10.2c-16.2,10-30,22.6-38.9,42.2c-0.9,1.4-2.8,1.8-4.1,0.9
		c-1.4-0.9-1.8-2.7-0.9-4.1c12.7-19.6,25.8-31.2,42.6-41.6c4.1-2.6,10.1-6.5,15.7-9c4.9-2.3,12-4.7,16.3-0.4
		c0.4,0.4,0.8,0.9,1.1,1.4c3.1,5.9-4.3,16.1-5.5,17.2l-0.1,0.1c-3.8,3.8-7.9,7.8-12,12.1l-6.4,6.7l11.5-8.3
		C71.8,26,80.1,20.7,87.1,17c6.2-3.3,13-6.3,17-5.2c2,0.6,3.4,2.1,3.7,4.2c0.1,0.9,0,1.7-0.1,2.5C105.3,30,93.3,45.5,80.3,61
		L72.7,70l7-6.6c13.9-12.8,28.2-24.5,44.7-33.1c2.2-1.2,4.8,0.7,4.3,3.2C126.2,47,120,58.8,112.9,69L103.8,81l21-13.2
		c4.4-6.6,15-23.1,21.5-23.8l0.1,0l0.3,0h0.2c2.1,0,4,0.1,5.5,0.9c2.4,1.1,3.2,3.5,2.3,5.8c-1.3,3.3-6.4,7-11.8,10.6
		c-2.9,2-6.2,4-9.7,6.2l-6,4.1c-4.7,5.4-7.4,10.6-9.9,15.7c-0.6,0.8,0.7,1.1,1.9,0.3c31.4-21.6,50.6-41,59.4-44l0.4-0.1
		c0.6-0.1,2.5-0.6,3.9,0.9c1.3,1.4,0.9,3.2,0.7,3.7c-1.1,3.9-9.2,13.7-14.4,20c-3.3,4-6.6,8-9.1,11.2l-1,1.3l0.3-0.1
		c16-4.7,32.9-18.3,51-25.9c1.4-0.6,2.8-1.1,3.9-1.2c0.6-0.1,2.5-0.1,3.6,1.5c1.1,1.5,0.5,3.2,0.3,3.7c-1.1,2.8-14.5,13.7-18.3,17.5
		l-1.5,1.5l1.3-0.5c23.7-9.1,41.6-16.2,68.8-12.6c1.6,0.2,2.8,1.7,2.6,3.4s-1.7-1.2-3.4-1.4c-29.7-4-36.2,1.7-68.1,14.6
		c-0.2,0.1-0.5,0.2-0.7,0.3c0.2-0.1-2.4,0.9-3.9-1.2c-1.3-1.9,0-3.9,0-3.8c1.2-2.1,21.1-12.8,21.6-19.3l-0.5-1
		c-1.7-0.6-5,1.8-6.8,2.8c-19.9,11.1-47.7,28.5-55.9,29.1c-1.1,0.1-3.1-0.4-3.6-2.5c-0.2-1.1,0.2-2,0.3-2.3c0.7-1.6,2.9-4.5,5.4-7.6
		c16.7-17.2,30.1-29.9,25.8-30.3c-2.9-0.2-8.7,3.6-12,6.6c-16.4,13.7-27.9,27.3-50.6,41c-0.5,0.2-2.3,1.2-4-0.1
		c-1.6-1.2-1.5-3.1-1.4-3.5c0.2-2,1.9-5.9,4.3-10.4l1.8-3.2l-7.8,4.7c-3.5,2.1-6.7,4.1-9.6,6c-3.1,2.1-5.5,3.8-7.1,5.1l-0.3,0.2
		l-3,3.4c-2.2,2.5-6.3,0-5-3.1l0.1-0.3l0.1-0.2c37.4-38.8,42.6-60.6,38.7-58.8c-29.1,17.1-55.1,49.4-83.4,74.8
		C39.2,110,35.4,106.6,37.4,103.7z M146.9,45.6c-9,3.8-13.7,15-17.5,20.1L147.5,53C150.2,50.9,157,44.5,146.9,45.6z"/>
	<path class="st1" d="M251.4,76.5c-0.6,0-1.2,0-1.7,0c-0.4-0.1-0.8-0.2-1.1-0.4c-0.4-0.3-0.6-0.7-0.4-1.2c0.3-0.6,0.5-1.2,0.8-1.8
		c0.1-0.3,0.4-0.3,0.7-0.2c1,0.3,1.9,0.8,2.7,1.6c0.5,0.5,0.4,1,0.3,1.6c0,0.2-0.3,0.4-0.5,0.4C251.9,76.5,251.6,76.5,251.4,76.5
		L251.4,76.5z"/>
	<path class="st1" d="M239.3,50.1c-1,0-2.1,0.1-3.1,0c-0.7-0.1-1.5-0.3-2.1-0.7c-0.7-0.5-1.1-1.2-0.7-2.1c0.5-1.1,1-2.2,1.5-3.3
		c0.3-0.5,0.7-0.6,1.2-0.4c1.8,0.6,3.4,1.5,4.8,2.8c0.9,0.8,0.8,1.9,0.6,2.9c-0.1,0.3-0.6,0.7-1,0.8
		C240.2,50.2,239.7,50.1,239.3,50.1L239.3,50.1z"/>
	<path class="st1" d="M152.3,9.1c0.7-0.7,1.4-1.5,2.2-2.2c0.6-0.5,1.3-0.8,1.9-1c0.9-0.2,1.6,0,2,1c0.4,1.1,0.9,2.3,1.3,3.4
		c0.2,0.5,0,0.9-0.6,1.1c-1.7,0.9-3.5,1.3-5.4,1.4c-1.3,0.1-1.9-0.8-2.5-1.6c-0.2-0.3,0-0.9,0.2-1.3C151.6,9.7,152,9.4,152.3,9.1
		L152.3,9.1z"/>
	<path class="st1" d="M140.4,100.3c-0.6,0-1.2,0-1.7,0c-0.4-0.1-0.8-0.2-1.1-0.4c-0.4-0.3-0.6-0.7-0.4-1.2c0.3-0.6,0.5-1.2,0.8-1.8
		c0.1-0.3,0.4-0.3,0.7-0.2c1,0.3,1.9,0.8,2.7,1.6c0.5,0.5,0.4,1,0.3,1.6c0,0.2-0.3,0.4-0.5,0.4C140.9,100.3,140.7,100.3,140.4,100.3
		L140.4,100.3z"/>
	<path class="st1" d="M64.4,111c-0.5,0.5-1,1-1.6,1.4c-0.4,0.3-0.9,0.5-1.3,0.6c-0.6,0.1-1.1-0.1-1.3-0.7c-0.2-0.8-0.5-1.5-0.8-2.3
		c-0.1-0.4,0.1-0.6,0.4-0.7c1.2-0.5,2.4-0.8,3.7-0.8c0.9,0,1.3,0.6,1.6,1.2c0.1,0.2,0,0.6-0.1,0.8C64.9,110.7,64.6,110.8,64.4,111
		L64.4,111z"/>
	<path class="st1" d="M18.2,89.7c0.7-0.7,1.4-1.5,2.2-2.2c0.6-0.5,1.3-0.8,1.9-1c0.9-0.2,1.6,0,2,1c0.4,1.1,0.9,2.3,1.3,3.4
		c0.2,0.5,0,0.9-0.6,1.1c-1.7,0.9-3.5,1.3-5.4,1.4c-1.3,0.1-1.9-0.8-2.5-1.6c-0.2-0.3,0-0.9,0.2-1.3C17.5,90.3,17.9,90,18.2,89.7
		L18.2,89.7z"/>
</g>
</svg>
